#Comment line ignore any data following # character 
#Hierarchical Translation and Rotation (.htr) file 
[Header]	
#Header keywords are followed by a single value 
FileType HTR		#Single word string
DataType HTRS		#Translation followed by rotation and scale data
FileVersion 1		#integer
NumSegments 84		#integer
NumFrames 2		#integer
DataFrameRate 30		#integer, data frame rate in this file
EulerRotationOrder ZYX
CalibrationUnits mm
RotationUnits Degrees
GlobalAxisofGravity Y
BoneLengthAxis Y
ScaleFactor 1.00
[SegmentNames&Hierarchy]
#CHILD	PARENT
MASTER GLOBAL
root MASTER
chest root
L_mid_tent01 root
R_mid_tent01 root
spine01 root
Bip01_Neck chest
L_humerus chest
R_humerus chest
weapon_bone chest
Bip01_Head Bip01_Neck
eye_left_bone Bip01_Head
eye_right_bone Bip01_Head
L_forearm L_humerus
L_front_hand L_forearm
L_weapon_bone L_forearm
L_front_hand01_01 L_front_hand
L_front_hand02_01 L_front_hand
L_front_hand03_01 L_front_hand
L_front_hand01_02 L_front_hand01_01
L_front_hand02_02 L_front_hand02_01
L_front_hand03_02 L_front_hand03_01
R_forearm R_humerus
R_front_hand R_forearm
R_weapon_bone R_forearm
R_front_hand01_01 R_front_hand
R_front_hand02_01 R_front_hand
R_front_hand03_01 R_front_hand
R_front_hand01_02 R_front_hand01_01
R_front_hand02_02 R_front_hand02_01
R_front_hand03_02 R_front_hand03_01
null_rope01_connect L_mid_tent01
Rope1_Seg01 null_rope01_connect
Rope1_Seg02 Rope1_Seg01
Rope1_Seg03 Rope1_Seg02
Rope1_Seg04 Rope1_Seg03
Rope1_Seg05 Rope1_Seg04
Rope1_Seg06 Rope1_Seg05
Rope1_Seg07 Rope1_Seg06
Rope1_Seg09 Rope1_Seg07
L_mid_hand01 Rope1_Seg09
L_mid_hand02 Rope1_Seg09
L_mid_hand03 Rope1_Seg09
null_rope02_connect R_mid_tent01
Rope2_Seg01 null_rope02_connect
Rope2_Seg02 Rope2_Seg01
Rope2_Seg03 Rope2_Seg02
Rope2_Seg04 Rope2_Seg03
Rope2_Seg05 Rope2_Seg04
Rope2_Seg06 Rope2_Seg05
Rope2_Seg07 Rope2_Seg06
Rope2_Seg09 Rope2_Seg07
R_mid_hand01 Rope2_Seg09
R_mid_hand02 Rope2_Seg09
R_mid_hand03 Rope2_Seg09
spine02 spine01
spine03 spine02
pelvis spine03
null_rope03_connect pelvis
null_rope04_connect pelvis
Rope3_Seg01 null_rope03_connect
Rope3_Seg02 Rope3_Seg01
Rope3_Seg03 Rope3_Seg02
Rope3_Seg04 Rope3_Seg03
Rope3_Seg05 Rope3_Seg04
Rope3_Seg06 Rope3_Seg05
Rope3_Seg07 Rope3_Seg06
Rope3_Seg08 Rope3_Seg07
Rope3_Seg09 Rope3_Seg08
R_rear_hand01 Rope3_Seg09
R_rear_hand02 Rope3_Seg09
R_rear_hand03 Rope3_Seg09
Rope4_Seg01 null_rope04_connect
Rope4_Seg02 Rope4_Seg01
Rope4_Seg03 Rope4_Seg02
Rope4_Seg04 Rope4_Seg03
Rope4_Seg05 Rope4_Seg04
Rope4_Seg06 Rope4_Seg05
Rope4_Seg07 Rope4_Seg06
Rope4_Seg08 Rope4_Seg07
Rope4_Seg09 Rope4_Seg08
L_rear_hand01 Rope4_Seg09
L_rear_hand02 Rope4_Seg09
L_rear_hand03 Rope4_Seg09
[BasePosition]
#SegmentName Tx, Ty, Tz, Rx, Ry, Rz, BoneLength
MASTER 0.000000 0.000000 0.000000 -90.000000 0.000000 0.000000 10.000000 
root 0.000000 0.000000 0.000000 0.000000 0.000000 0.000000 10.000000 
chest 0.000000 0.000000 0.000000 0.000000 0.000000 0.000000 10.000000 
L_mid_tent01 0.000000 0.000000 0.000000 0.000000 0.000000 0.000000 10.000000 
R_mid_tent01 0.000000 0.000000 0.000000 0.000000 0.000000 0.000000 10.000000 
spine01 0.000000 0.000000 0.000000 0.000000 0.000000 0.000000 10.000000 
Bip01_Neck 0.000000 0.000000 0.000000 0.000000 0.000000 0.000000 10.000000 
L_humerus 0.000000 0.000000 0.000000 0.000000 0.000000 0.000000 10.000000 
R_humerus 0.000000 0.000000 0.000000 0.000000 0.000000 0.000000 10.000000 
weapon_bone 0.000000 0.000000 0.000000 0.000000 0.000000 0.000000 10.000000 
Bip01_Head 0.000000 0.000000 0.000000 0.000000 0.000000 0.000000 10.000000 
eye_left_bone 0.000000 0.000000 0.000000 0.000000 0.000000 0.000000 10.000000 
eye_right_bone 0.000000 0.000000 0.000000 0.000000 0.000000 0.000000 10.000000 
L_forearm 0.000000 0.000000 0.000000 0.000000 0.000000 0.000000 10.000000 
L_front_hand 0.000000 0.000000 0.000000 0.000000 0.000000 0.000000 10.000000 
L_weapon_bone 0.000000 0.000000 0.000000 0.000000 0.000000 0.000000 10.000000 
L_front_hand01_01 0.000000 0.000000 0.000000 0.000000 0.000000 0.000000 10.000000 
L_front_hand02_01 0.000000 0.000000 0.000000 0.000000 0.000000 0.000000 10.000000 
L_front_hand03_01 0.000000 0.000000 0.000000 0.000000 0.000000 0.000000 10.000000 
L_front_hand01_02 0.000000 0.000000 0.000000 0.000000 0.000000 0.000000 10.000000 
L_front_hand02_02 0.000000 0.000000 0.000000 0.000000 0.000000 0.000000 10.000000 
L_front_hand03_02 0.000000 0.000000 0.000000 0.000000 0.000000 0.000000 10.000000 
R_forearm 0.000000 0.000000 0.000000 0.000000 0.000000 0.000000 10.000000 
R_front_hand 0.000000 0.000000 0.000000 0.000000 0.000000 0.000000 10.000000 
R_weapon_bone 0.000000 0.000000 0.000000 0.000000 0.000000 0.000000 10.000000 
R_front_hand01_01 0.000000 0.000000 0.000000 0.000000 0.000000 0.000000 10.000000 
R_front_hand02_01 0.000000 0.000000 0.000000 0.000000 0.000000 0.000000 10.000000 
R_front_hand03_01 0.000000 0.000000 0.000000 0.000000 0.000000 0.000000 10.000000 
R_front_hand01_02 0.000000 0.000000 0.000000 0.000000 0.000000 0.000000 10.000000 
R_front_hand02_02 0.000000 0.000000 0.000000 0.000000 0.000000 0.000000 10.000000 
R_front_hand03_02 0.000000 0.000000 0.000000 0.000000 0.000000 0.000000 10.000000 
null_rope01_connect 0.000000 0.000000 0.000000 0.000000 0.000000 0.000000 10.000000 
Rope1_Seg01 0.000000 0.000000 0.000000 0.000000 0.000000 0.000000 10.000000 
Rope1_Seg02 0.000000 0.000000 0.000000 0.000000 0.000000 0.000000 10.000000 
Rope1_Seg03 0.000000 0.000000 0.000000 0.000000 0.000000 0.000000 10.000000 
Rope1_Seg04 0.000000 0.000000 0.000000 0.000000 0.000000 0.000000 10.000000 
Rope1_Seg05 0.000000 0.000000 0.000000 0.000000 0.000000 0.000000 10.000000 
Rope1_Seg06 0.000000 0.000000 0.000000 0.000000 0.000000 0.000000 10.000000 
Rope1_Seg07 0.000000 0.000000 0.000000 0.000000 0.000000 0.000000 10.000000 
Rope1_Seg09 0.000000 0.000000 0.000000 0.000000 0.000000 0.000000 10.000000 
L_mid_hand01 0.000000 0.000000 0.000000 0.000000 0.000000 0.000000 10.000000 
L_mid_hand02 0.000000 0.000000 0.000000 0.000000 0.000000 0.000000 10.000000 
L_mid_hand03 0.000000 0.000000 0.000000 0.000000 0.000000 0.000000 10.000000 
null_rope02_connect 0.000000 0.000000 0.000000 0.000000 0.000000 0.000000 10.000000 
Rope2_Seg01 0.000000 0.000000 0.000000 0.000000 0.000000 0.000000 10.000000 
Rope2_Seg02 0.000000 0.000000 0.000000 0.000000 0.000000 0.000000 10.000000 
Rope2_Seg03 0.000000 0.000000 0.000000 0.000000 0.000000 0.000000 10.000000 
Rope2_Seg04 0.000000 0.000000 0.000000 0.000000 0.000000 0.000000 10.000000 
Rope2_Seg05 0.000000 0.000000 0.000000 0.000000 0.000000 0.000000 10.000000 
Rope2_Seg06 0.000000 0.000000 0.000000 0.000000 0.000000 0.000000 10.000000 
Rope2_Seg07 0.000000 0.000000 0.000000 0.000000 0.000000 0.000000 10.000000 
Rope2_Seg09 0.000000 0.000000 0.000000 0.000000 0.000000 0.000000 10.000000 
R_mid_hand01 0.000000 0.000000 0.000000 0.000000 0.000000 0.000000 10.000000 
R_mid_hand02 0.000000 0.000000 0.000000 0.000000 0.000000 0.000000 10.000000 
R_mid_hand03 0.000000 0.000000 0.000000 0.000000 0.000000 0.000000 10.000000 
spine02 0.000000 0.000000 0.000000 0.000000 0.000000 0.000000 10.000000 
spine03 0.000000 0.000000 0.000000 0.000000 0.000000 0.000000 10.000000 
pelvis 0.000000 0.000000 0.000000 0.000000 0.000000 0.000000 10.000000 
null_rope03_connect 0.000000 0.000000 0.000000 0.000000 0.000000 0.000000 10.000000 
null_rope04_connect 0.000000 0.000000 0.000000 0.000000 0.000000 0.000000 10.000000 
Rope3_Seg01 0.000000 0.000000 0.000000 0.000000 0.000000 0.000000 10.000000 
Rope3_Seg02 0.000000 0.000000 0.000000 0.000000 0.000000 0.000000 10.000000 
Rope3_Seg03 0.000000 0.000000 0.000000 0.000000 0.000000 0.000000 10.000000 
Rope3_Seg04 0.000000 0.000000 0.000000 0.000000 0.000000 0.000000 10.000000 
Rope3_Seg05 0.000000 0.000000 0.000000 0.000000 0.000000 0.000000 10.000000 
Rope3_Seg06 0.000000 0.000000 0.000000 0.000000 0.000000 0.000000 10.000000 
Rope3_Seg07 0.000000 0.000000 0.000000 0.000000 0.000000 0.000000 10.000000 
Rope3_Seg08 0.000000 0.000000 0.000000 0.000000 0.000000 0.000000 10.000000 
Rope3_Seg09 0.000000 0.000000 0.000000 0.000000 0.000000 0.000000 10.000000 
R_rear_hand01 0.000000 0.000000 0.000000 0.000000 0.000000 0.000000 10.000000 
R_rear_hand02 0.000000 0.000000 0.000000 0.000000 0.000000 0.000000 10.000000 
R_rear_hand03 0.000000 0.000000 0.000000 0.000000 0.000000 0.000000 10.000000 
Rope4_Seg01 0.000000 0.000000 0.000000 0.000000 0.000000 0.000000 10.000000 
Rope4_Seg02 0.000000 0.000000 0.000000 0.000000 0.000000 0.000000 10.000000 
Rope4_Seg03 0.000000 0.000000 0.000000 0.000000 0.000000 0.000000 10.000000 
Rope4_Seg04 0.000000 0.000000 0.000000 0.000000 0.000000 0.000000 10.000000 
Rope4_Seg05 0.000000 0.000000 0.000000 0.000000 0.000000 0.000000 10.000000 
Rope4_Seg06 0.000000 0.000000 0.000000 0.000000 0.000000 0.000000 10.000000 
Rope4_Seg07 0.000000 0.000000 0.000000 0.000000 0.000000 0.000000 10.000000 
Rope4_Seg08 0.000000 0.000000 0.000000 0.000000 0.000000 0.000000 10.000000 
Rope4_Seg09 0.000000 0.000000 0.000000 0.000000 0.000000 0.000000 10.000000 
L_rear_hand01 0.000000 0.000000 0.000000 0.000000 0.000000 0.000000 10.000000 
L_rear_hand02 0.000000 0.000000 0.000000 0.000000 0.000000 0.000000 10.000000 
L_rear_hand03 0.000000 0.000000 0.000000 0.000000 0.000000 0.000000 10.000000 
#Beginning of Data. Separated by tabs
#Fr	Tx	Ty	Tz	Rx	Ry	Rz	SF
[MASTER]
25 0.000000 0.000000 0.000000 0.001660 0.001660 0.001660 0.000000
26 0.000000 0.000000 0.000000 0.001660 0.001660 0.001660 0.000000
[root]
25 19.702271 262.227905 1504.370361 -72.438766 -12.043950 -121.922211 1527.181030
26 16.545408 232.292343 1492.142822 -74.347420 -11.931351 -116.229591 1510.206421
[chest]
25 -84.512650 -34.090519 0.000000 -2.840982 -2.074497 176.258911 91.129311
26 -84.512650 -34.090519 0.000000 -2.821543 -1.237142 176.065094 91.129311
[L_mid_tent01]
25 27.299068 22.179296 -249.918671 85.385094 36.259937 116.575279 252.381668
26 27.299068 22.179293 -249.918671 71.943253 41.295120 100.561508 252.381668
[R_mid_tent01]
25 23.228794 24.509907 226.238495 -134.262772 -8.911420 28.002506 228.744751
26 23.228794 24.509907 226.238495 -138.166153 -6.311799 26.505356 228.744751
[spine01]
25 -0.361383 -0.195265 0.000000 0.001937 0.001325 21.256269 0.410763
26 -0.361383 -0.195265 0.000000 0.001938 0.001324 21.311625 0.410763
[Bip01_Neck]
25 165.484543 71.581718 0.000119 175.896118 1.177290 24.871183 180.302734
26 165.484543 71.581718 0.000119 175.896118 1.177290 24.871183 180.302734
[L_humerus]
25 -13.983130 -135.272980 -120.471481 -79.174599 43.899990 14.734801 181.680161
26 -13.983130 -135.272980 -120.471481 -76.524017 49.364239 17.736279 181.680161
[R_humerus]
25 -13.983309 -135.273102 125.287651 137.335449 -40.180851 -20.492952 184.909012
26 -13.983309 -135.273102 125.287651 134.836761 -44.275589 -20.216160 184.909012
[weapon_bone]
25 235.964890 -300.705902 0.000000 0.000000 -89.951546 -128.212341 382.234833
26 235.964890 -300.705902 0.000000 0.000000 -89.951546 -128.212341 382.234833
[Bip01_Head]
25 247.948288 102.250923 3.376163 26.828745 9.995437 -69.306213 268.225677
26 243.629257 109.742569 4.247824 22.720566 8.824148 -68.962311 267.239014
[eye_left_bone]
25 29.791380 157.604797 -75.261589 -104.218590 -85.597984 4.718000 177.175354
26 29.409084 157.378937 -75.187920 -104.218590 -85.597984 4.718000 176.879196
[eye_right_bone]
25 40.378353 158.479141 53.429169 75.788536 -85.594551 4.713911 172.048615
26 39.894314 158.233261 53.510296 75.788536 -85.594551 4.713911 171.734299
[L_forearm]
25 322.776093 0.000000 -0.000119 0.000601 0.002269 -60.312443 322.776093
26 322.776093 0.000000 -0.000119 0.000437 0.002306 -68.544785 322.776093
[L_front_hand]
25 241.149185 -0.042021 -3.300071 39.578915 3.347552 -5.332743 241.171753
26 241.149185 -0.042021 -3.300071 39.578922 3.347553 -5.332744 241.171753
[L_weapon_bone]
25 156.183838 0.000000 0.000000 0.001136 0.002054 -32.119087 156.183838
26 156.183838 0.000000 0.000000 0.001246 0.001989 -25.886007 156.183838
[L_front_hand01_01]
25 86.095154 20.947098 -0.655860 -0.288967 -0.524182 66.581490 88.609184
26 86.095154 20.947098 -0.655860 -0.288967 -0.524182 66.581497 88.609184
[L_front_hand02_01]
25 86.935165 -11.437475 24.513514 142.546371 -55.255386 -47.355206 91.046425
26 86.935165 -11.437475 24.513514 142.546371 -55.255390 -47.355206 91.046425
[L_front_hand03_01]
25 86.637497 -14.123976 -20.424902 -142.852768 53.473385 -49.356216 90.126129
26 86.637497 -14.123976 -20.424902 -142.852737 53.473358 -49.356190 90.126129
[L_front_hand01_02]
25 71.020905 -0.000179 0.000030 0.000459 0.002302 -67.435081 71.020905
26 71.020905 -0.000179 0.000030 0.000983 0.002131 -40.458351 71.020905
[L_front_hand02_02]
25 71.020927 -0.000119 0.000060 0.000459 0.002302 -67.435081 71.020927
26 71.020927 -0.000119 0.000060 0.000983 0.002131 -40.458351 71.020927
[L_front_hand03_02]
25 71.020905 -0.000060 0.000060 0.000459 0.002302 -67.435081 71.020905
26 71.020905 -0.000060 0.000060 0.000983 0.002131 -40.458351 71.020905
[R_forearm]
25 322.776428 -0.000060 0.000030 0.135083 -0.165004 -39.774345 322.776428
26 322.776428 -0.000060 0.000030 0.144599 -0.152728 -44.593201 322.776428
[R_front_hand]
25 238.847015 -0.006795 2.210259 -2.635298 -10.645461 -26.312506 238.857239
26 238.847015 -0.006795 2.210259 -2.635298 -10.645461 -26.312506 238.857239
[R_weapon_bone]
25 155.664093 0.002503 -0.000030 0.003487 0.001180 -90.988930 155.664078
26 155.664093 0.002503 -0.000030 0.003487 0.001180 -90.988930 155.664078
[R_front_hand01_01]
25 87.624611 14.231146 22.918642 -154.633514 -59.950634 61.746063 91.683487
26 87.624611 14.231146 22.918642 -154.633499 -59.950619 61.746044 91.683487
[R_front_hand02_01]
25 89.356956 14.367283 -19.491137 154.602661 58.302849 63.744389 92.579636
26 89.356956 14.367283 -19.491137 154.602661 58.302849 63.744389 92.579636
[R_front_hand03_01]
25 87.286232 -22.307278 -0.143439 0.162155 -0.423168 -75.767921 90.091743
26 87.286232 -22.307278 -0.143439 0.162155 -0.423168 -75.767921 90.091743
[R_front_hand01_02]
25 71.020905 0.000060 0.000119 0.002323 -0.000334 106.381721 71.020905
26 71.020905 0.000060 0.000119 0.002323 -0.000334 106.381714 71.020905
[R_front_hand02_02]
25 71.020844 -0.000030 -0.000119 0.002323 -0.000334 106.381721 71.020836
26 71.020844 -0.000030 -0.000119 0.002323 -0.000334 106.381714 71.020836
[R_front_hand03_02]
25 71.020905 0.000000 0.000030 0.002323 -0.000334 106.381721 71.020905
26 71.020905 0.000000 0.000030 0.002323 -0.000334 106.381714 71.020905
[null_rope01_connect]
25 328.732483 0.000000 -0.000238 -105.605087 18.761490 102.380119 328.732483
26 328.732483 0.000000 -0.000238 -96.172203 7.077140 114.596901 328.732483
[Rope1_Seg01]
25 -0.000024 0.000010 0.000038 75.690315 42.625389 88.733139 0.000046
26 -0.000023 0.000008 0.000033 81.070908 40.277706 94.479820 0.000042
[Rope1_Seg02]
25 139.999863 -0.000179 0.000000 -2.808941 -16.225159 18.770376 139.999863
26 139.999863 -0.000179 0.000000 5.427155 -15.959195 36.015118 139.999863
[Rope1_Seg03]
25 139.999924 0.000060 -0.000060 2.725615 -14.796574 21.261444 139.999924
26 139.999924 0.000060 -0.000060 -4.722664 -5.906991 2.540175 139.999924
[Rope1_Seg04]
25 139.999924 -0.000060 -0.000119 -11.977256 -1.613400 -7.169776 139.999924
26 139.999924 -0.000060 -0.000119 -16.180166 -1.150696 -21.693005 139.999924
[Rope1_Seg05]
25 139.999832 0.000119 -0.000060 -7.284742 5.497098 -14.224627 139.999832
26 139.999832 0.000119 -0.000060 -2.793638 1.017564 -6.284642 139.999832
[Rope1_Seg06]
25 139.999954 0.000119 -0.000060 -1.832778 1.939411 -4.829375 139.999954
26 139.999954 0.000119 -0.000060 -1.345343 0.789135 -3.737627 139.999954
[Rope1_Seg07]
25 139.999985 0.000060 0.000000 -0.943335 1.307626 -3.031561 139.999985
26 139.999985 0.000060 0.000000 -0.538590 0.404134 -1.716473 139.999985
[Rope1_Seg09]
25 121.602913 0.000119 -0.000089 10.000624 -1.358246 0.846031 121.602913
26 121.602913 0.000119 -0.000089 25.856726 -1.359777 0.846592 121.602913
[L_mid_hand01]
25 103.859421 1.038730 8.195221 126.924065 -65.633125 -34.926903 104.187431
26 103.859421 1.038730 8.195221 129.549438 -67.084206 -37.790401 104.187431
[L_mid_hand02]
25 105.572853 -4.139662 -10.864139 -166.625534 42.877316 -70.146873 106.211075
26 105.572853 -4.139662 -10.864139 -168.317154 43.279957 -72.619522 106.211075
[L_mid_hand03]
25 104.641464 17.579376 -3.913581 -6.807623 17.530092 72.284416 106.179977
26 104.641464 17.579376 -3.913581 -6.221180 17.738110 74.211739 106.179977
[null_rope02_connect]
25 328.732849 0.000179 -0.000119 162.174225 20.695848 -105.542915 328.732849
26 328.732849 0.000179 -0.000119 161.145905 27.603809 -104.281784 328.732849
[Rope2_Seg01]
25 0.000095 0.000153 0.000057 90.638809 15.320669 -51.523670 0.000189
26 0.000095 0.000153 0.000060 64.292847 15.754378 -45.318649 0.000190
[Rope2_Seg02]
25 139.999741 -0.000060 -0.000119 -79.046921 12.211090 10.849461 139.999756
26 139.999741 -0.000060 -0.000119 -67.467636 4.218944 12.267152 139.999756
[Rope2_Seg03]
25 140.000107 0.000030 0.000000 -23.794910 -17.166136 26.036055 140.000107
26 140.000107 0.000030 0.000000 -11.662644 -20.416306 16.866829 140.000107
[Rope2_Seg04]
25 139.999802 0.000000 -0.000060 -3.419101 -23.084978 12.746202 139.999802
26 139.999802 0.000000 -0.000060 -2.346481 -26.208611 11.953793 139.999802
[Rope2_Seg05]
25 139.999985 -0.000060 0.000119 -5.036914 -12.370001 23.476379 139.999985
26 139.999985 -0.000060 0.000119 -7.858393 -19.293297 33.633617 139.999985
[Rope2_Seg06]
25 139.999893 -0.000030 -0.000119 6.137108 -15.716575 46.441044 139.999893
26 139.999893 -0.000030 -0.000119 16.369577 -23.085073 52.933479 139.999893
[Rope2_Seg07]
25 139.999893 0.000060 -0.000060 11.241882 -3.841002 16.968563 139.999893
26 139.999893 0.000060 -0.000060 16.065750 -1.082578 13.748772 139.999893
[Rope2_Seg09]
25 121.338966 0.000089 -0.000060 33.793236 -1.359788 -0.847141 121.338966
26 121.338966 0.000089 -0.000060 33.793236 -1.359788 -0.847141 121.338966
[R_mid_hand01]
25 104.680779 11.144459 -10.335981 -43.938278 20.114079 22.371922 105.778534
26 104.680779 11.144459 -10.335981 -44.145947 19.560663 21.759447 105.778534
[R_mid_hand02]
25 104.070427 2.443552 8.231699 74.082703 -25.252432 7.471603 104.424065
26 104.070427 2.443552 8.231699 74.186180 -24.483597 7.232481 104.424065
[R_mid_hand03]
25 106.028137 -11.221827 -5.996406 -166.638550 8.536322 -29.281847 106.788818
26 106.028137 -11.221827 -5.996406 -166.520828 8.347036 -28.494410 106.788818
[spine02]
25 129.756927 0.001550 0.000119 0.303917 -4.050218 -12.161337 129.756927
26 129.756927 0.001550 0.000119 0.301978 -4.050362 -12.106523 129.756927
[spine03]
25 78.614044 0.081520 -4.899010 2.081620 3.733004 19.282845 78.766579
26 78.614044 0.081515 -4.899009 2.062610 3.745120 18.973896 78.766579
[pelvis]
25 169.435242 0.051022 0.000000 -0.061003 -0.180044 14.429866 169.435257
26 169.435242 0.051022 0.000000 -0.060895 -0.180081 14.361069 169.435257
[null_rope03_connect]
25 -1.257226 -2.466202 137.391083 -54.980774 -56.946751 119.445847 137.418976
26 -1.257226 -2.466202 137.391083 -52.847427 -62.155727 116.057716 137.418976
[null_rope04_connect]
25 -1.259640 -2.480268 -137.844437 -54.980774 -56.946751 119.445847 137.872513
26 -1.259640 -2.480268 -137.844437 -52.847427 -62.155727 116.057716 137.872513
[Rope3_Seg01]
25 0.000000 0.000000 0.000000 -117.889832 -18.179869 -112.503609 0.000000
26 0.000000 0.000000 0.000000 -122.757568 -12.799880 -106.707108 0.000000
[Rope3_Seg02]
25 139.999924 -0.000119 0.000060 0.855861 6.238974 8.729598 139.999924
26 139.999924 -0.000119 0.000060 -0.238211 4.221128 8.557763 139.999924
[Rope3_Seg03]
25 139.999924 -0.000119 0.000119 2.181134 9.732221 13.617216 139.999924
26 139.999924 -0.000119 0.000119 -0.988893 6.272420 13.167379 139.999924
[Rope3_Seg04]
25 139.999924 0.000119 0.000000 3.569600 11.124868 16.123997 139.999924
26 139.999924 0.000119 0.000000 -6.098229 7.738662 18.502981 139.999924
[Rope3_Seg05]
25 139.999924 -0.000238 0.000060 156.866592 15.633851 18.810337 139.999924
26 139.999924 -0.000238 0.000060 -62.174843 6.650546 20.633656 139.999924
[Rope3_Seg06]
25 139.999893 -0.000119 -0.000060 11.940978 -5.287757 -16.562855 139.999893
26 139.999893 -0.000119 -0.000060 -70.032349 -7.025728 7.617702 139.999893
[Rope3_Seg07]
25 139.999771 0.000060 -0.000119 2.074815 -3.852964 -7.229452 139.999771
26 139.999771 0.000060 -0.000119 -10.336711 -5.199807 -2.301697 139.999771
[Rope3_Seg08]
25 139.999985 -0.000060 0.000000 1.078617 -2.096605 -3.679273 139.999985
26 139.999985 -0.000060 0.000000 -2.837695 -2.605585 -1.779623 139.999985
[Rope3_Seg09]
25 90.185997 -0.000179 -0.000060 31.112844 -1.358654 -0.848857 90.185997
26 90.185997 -0.000179 -0.000060 28.257717 -1.359602 -0.848491 90.185997
[R_rear_hand01]
25 103.366196 -6.073594 -10.757982 -160.429581 15.319305 -26.019775 104.101845
26 103.366196 -6.073594 -10.757982 -160.019470 14.769054 -24.439314 104.101845
[R_rear_hand02]
25 100.509819 12.039542 -7.992327 -35.392113 16.927849 25.302750 101.543350
26 100.509819 12.039542 -7.992327 -35.779438 15.980555 23.927942 101.543350
[R_rear_hand03]
25 101.539970 5.215704 5.435467 83.622467 -26.824530 6.747134 101.819031
26 101.539970 5.215704 5.435467 83.711815 -25.208061 6.550417 101.819031
[Rope4_Seg01]
25 -0.000012 -0.000019 -0.000153 -12.319092 55.761742 -177.482117 0.000154
26 -0.000012 -0.000017 -0.000153 16.593075 48.879688 -147.933014 0.000154
[Rope4_Seg02]
25 139.999985 0.000060 0.000119 -1.382635 0.838190 -4.510638 139.999985
26 139.999985 0.000060 0.000119 -1.174710 -0.772208 -5.447983 139.999985
[Rope4_Seg03]
25 139.999924 0.000000 -0.000238 3.883023 -6.168869 12.450132 139.999924
26 139.999924 0.000000 -0.000238 2.290695 -3.836134 6.997198 139.999924
[Rope4_Seg04]
25 139.999985 0.000000 0.000119 -20.529076 11.166935 -43.626606 139.999985
26 139.999985 0.000000 0.000119 -11.780303 1.856082 -29.189960 139.999985
[Rope4_Seg05]
25 139.999802 -0.000060 -0.000119 -12.500413 15.499355 -25.011265 139.999802
26 139.999802 -0.000060 -0.000119 -26.202848 13.202650 -41.554440 139.999802
[Rope4_Seg06]
25 139.999924 0.000000 0.000060 -1.115476 3.154318 -3.537592 139.999924
26 139.999924 0.000000 0.000060 -2.993000 4.516616 -5.435973 139.999924
[Rope4_Seg07]
25 139.999802 0.000000 0.000000 -0.469167 1.799227 -1.944765 139.999802
26 139.999802 0.000000 0.000000 -1.260571 2.397162 -2.622159 139.999802
[Rope4_Seg08]
25 139.999924 0.000000 0.000119 -1.768849 1.018779 -1.082522 139.999924
26 139.999924 0.000000 0.000119 -2.161391 1.330859 -1.393779 139.999924
[Rope4_Seg09]
25 90.185791 0.000060 0.000060 172.649017 2.228748 0.849849 90.185791
26 90.185791 0.000060 0.000060 170.739426 2.230606 0.848302 90.185791
[L_rear_hand01]
25 101.696655 -8.392275 -7.654577 -32.601727 -22.214939 146.390640 102.329041
26 101.696655 -8.392275 -7.654577 -33.730721 -20.321470 149.497833 102.329041
[L_rear_hand02]
25 102.726799 -1.568258 5.773216 82.943214 36.203041 171.954926 102.900848
26 102.726799 -1.568258 5.773216 83.230804 32.765301 172.461090 102.900848
[L_rear_hand03]
25 104.552910 9.721220 -10.420293 -163.143448 -18.276056 -144.611099 105.519653
26 104.552910 9.721220 -10.420293 -162.085541 -17.241915 -148.076920 105.519653
